{"title":"Couples.Seduce.Couples.9.xXx.2014.DVDRip-ViK","uid":10716120,"size":3754570990,"categoryP":"porn","categoryS":"movies","magnet":"?xt=urn:btih:8198f23031b6fa9a36793f4895692f2aa8748fba&amp;dn=Couples.Seduce.Couples.9.xXx.2014.DVDRip-ViK&amp;tr=udp%3A%2F%2Ftracker.openbittorrent.com%3A80&amp;tr=udp%3A%2F%2Fopen.demonii.com%3A1337&amp;tr=udp%3A%2F%2Ftracker.coppersurfer.tk%3A6969&amp;tr=udp%3A%2F%2Fexodus.desync.com%3A6969","seeders":0,"leechers":1,"uploader":"iH2OSO4","files":-1,"time":1407411737,"description":"Adam Killian's Raw Wet Dream is Adams debut bareback sex performance where reality and fantasy collide! In it he chases his lover Marco Milan, along with an all-star cast of bareback sex stars through a fused reality of conscious and unconsciousness! Adams real-life romance is an explosion of sweat, cum, and passion, reaching it's height the best way possible: a bareback fuck fest!\n\nComplete name                    Couples.Seduce.Couples.9.xXx.2014.DVDRip-ViK.mp4\n\nSOURCE:  \n\nFormat                           : MPEG-4\nFormat profile                   : Base Media\nCodec ID                         : isom\nFile size                        : 3.50 GiB\nDuration                         : 4h 2mn\nOverall bit rate                 : 2 065 Kbps\nEncoded date                     : UTC 2014-08-07 09:11:41\nTagged date                      : UTC 2014-08-07 09:11:41\n\nVideo\nID                               : 1\nFormat                           : MPEG-4 Visual\nFormat profile                   : Simple@L1\nFormat settings, BVOP            : No\nFormat settings, QPel            : No\nFormat settings, GMC             : No warppoints\nFormat settings, Matrix          : Default (H.263)\nCodec ID                         : 20\nDuration                         : 4h 2mn\nBit rate mode                    : Variable\nBit rate                         : 1 937 Kbps\nMaximum bit rate                 : 5 618 Kbps\nWidth                            : 728 pixels\nHeight                           : 408 pixels\nDisplay aspect ratio             : 16:9\nFrame rate mode                  : Constant\nFrame rate                       : 29.970 fps\nColor space                      : YUV\nChroma subsampling               : 4:2:0\nBit depth                        : 8 bits\nScan type                        : Progressive\nCompression mode                 : Lossy\nBits/(Pixel*Frame)               : 0.218\nStream size                      : 3.28 GiB (94%)\nWriting library                  : Lavc53.8.0\nEncoded date                     : UTC 2014-08-07 09:11:41\nTagged date                      : UTC 2014-08-07 09:14:45\n\nAudio\nID                               : 2\nFormat                           : AAC\nFormat/Info                      : Advanced Audio Codec\nFormat profile                   : LC\nCodec ID                         : 40\nDuration                         : 4h 2mn\nBit rate mode                    : Variable\nBit rate                         : 125 Kbps\nMaximum bit rate                 : 245 Kbps\nChannel(s)                       : 2 channels\nChannel positions                : Front: L R\nSampling rate                    : 44.1 KHz\nCompression mode                 : Lossy\nStream size                      : 217 MiB (6%)\nEncoded date                     : UTC 2014-08-07 09:14:03\nTagged date                      : UTC 2014-08-07 09:14:45\n &lt;a href=&quot;\nhttp://www.cduniverse.com/productinfo.asp?pid=9127036&amp;style=ice&quot; rel=&quot;nofollow&quot; target=&quot;_NEW&quot;&gt;\nhttp://www.cduniverse.com/productinfo.asp?pid=9127036&amp;style=ice&lt;/a&gt;\n","torrent":{"xt":"urn:btih:8198f23031b6fa9a36793f4895692f2aa8748fba","amp;dn":"Couples.Seduce.Couples.9.xXx.2014.DVDRip-ViK","amp;tr":["udp%3A%2F%2Ftracker.openbittorrent.com%3A80","udp%3A%2F%2Fopen.demonii.com%3A1337","udp%3A%2F%2Ftracker.coppersurfer.tk%3A6969","udp%3A%2F%2Fexodus.desync.com%3A6969"],"infoHash":"8198f23031b6fa9a36793f4895692f2aa8748fba","infoHashBuffer":{"type":"Buffer","data":[129,152,242,48,49,182,250,154,54,121,63,72,149,105,47,42,168,116,143,186]},"announce":[],"urlList":[]}}